<svg width="128" height="128" viewBox="0 0 128 128" fill="none" xmlns="http://www.w3.org/2000/svg">
<g filter="url(#filter0_i_30_1120)">
<path d="M128 30.2436V97.7124C128.004 101.688 127.224 105.626 125.705 109.301C124.186 112.975 121.958 116.314 119.148 119.127C116.338 121.94 113.001 124.171 109.328 125.694C105.655 127.216 101.718 128 97.7417 128H30.273C22.2478 127.996 14.5522 124.807 8.87623 119.134C3.20021 113.461 0.00778584 105.767 1.42309e-05 97.7417V30.2729C-0.00384206 26.2976 0.776073 22.3605 2.29515 18.6868C3.81422 15.0132 6.04265 11.675 8.85297 8.86333C11.6633 6.05165 15.0003 3.82161 18.6733 2.30075C22.3462 0.779896 26.2829 -0.00192622 30.2583 3.56376e-06H97.7271C101.701 -0.00192302 105.636 0.778823 109.308 2.29766C112.979 3.81651 116.316 6.0437 119.127 8.85208C121.938 11.6605 124.169 14.995 125.691 18.6654C127.214 22.3358 127.998 26.27 128 30.2436V30.2436Z" fill="#FCBC34"/>
</g>
<g style="mix-blend-mode:soft-light" opacity="0.4">
<path d="M64.3033 49.8949L60.8125 68.2435L64.3033 71.0302V49.8949Z" fill="black"/>
</g>
<g style="mix-blend-mode:soft-light" filter="url(#filter1_f_30_1120)">
<path d="M37.8885 66H27.1115C22.6317 66 19 69.5817 19 74C19 78.4183 22.6317 82 27.1115 82H37.8885C42.3683 82 46 78.4183 46 74C46 69.5817 42.3683 66 37.8885 66Z" fill="#C140A3"/>
</g>
<g style="mix-blend-mode:soft-light" filter="url(#filter2_f_30_1120)">
<path d="M99.9043 66H89.0957C84.6246 66 81 69.5785 81 73.9929V74.0071C81 78.4215 84.6246 82 89.0957 82H99.9043C104.375 82 108 78.4215 108 74.0071V73.9929C108 69.5785 104.375 66 99.9043 66Z" fill="#C140A3"/>
</g>
<path d="M77.9154 106C77.6485 106 77.3874 105.922 77.1638 105.776C76.9402 105.629 76.7637 105.42 76.6558 105.174C74.9667 101.854 74.5527 98.0228 75.4929 94.4141C76.4332 90.8054 78.6617 87.6721 81.7525 85.613C84.8585 83.5085 88.6258 82.6293 92.3349 83.1433C96.0441 83.6572 99.4352 85.5282 101.861 88.399C101.993 88.6811 102.032 88.998 101.974 89.3042C101.915 89.6103 101.762 89.89 101.536 90.1029C101.31 90.3159 101.022 90.4511 100.715 90.4893C100.407 90.5275 100.096 90.4666 99.8251 90.3154C97.8362 87.9487 95.0514 86.4017 92.0018 85.9694C88.9522 85.5371 85.8512 86.2498 83.2903 87.9715C79.2774 90.6692 75.7771 96.5067 79.1895 104.039C79.311 104.385 79.3003 104.763 79.1595 105.101C79.0187 105.439 78.7579 105.712 78.428 105.867C78.2679 105.946 78.0934 105.992 77.9154 106V106Z" fill="black"/>
<g clip-path="url(#clip0_30_1120)">
<path d="M107 51.0396C107 43.8381 101.18 38 94 38C86.8203 38 81 43.8381 81 51.0396V54.9604C81 62.1619 86.8203 68 94 68C101.18 68 107 62.1619 107 54.9604V51.0396Z" fill="black"/>
<path d="M89.7856 47.5337C91.0493 47.5337 92.0737 46.5093 92.0737 45.2456C92.0737 43.9819 91.0493 42.9575 89.7856 42.9575C88.522 42.9575 87.4976 43.9819 87.4976 45.2456C87.4976 46.5093 88.522 47.5337 89.7856 47.5337Z" fill="white"/>
<path opacity="0.1" d="M94.0244 56.3486C96.9648 56.3486 99.3485 53.9649 99.3485 51.0244C99.3485 48.084 96.9648 45.7003 94.0244 45.7003C91.0839 45.7003 88.7002 48.084 88.7002 51.0244C88.7002 53.9649 91.0839 56.3486 94.0244 56.3486Z" fill="white"/>
<path d="M46 51.0396C46 43.8381 40.1797 38 33 38C25.8203 38 20 43.8381 20 51.0396V54.9604C20 62.162 25.8203 68 33 68C40.1797 68 46 62.162 46 54.9604V51.0396Z" fill="black"/>
<path d="M28.7856 47.5337C30.0493 47.5337 31.0737 46.5093 31.0737 45.2456C31.0737 43.9819 30.0493 42.9575 28.7856 42.9575C27.522 42.9575 26.4976 43.9819 26.4976 45.2456C26.4976 46.5093 27.522 47.5337 28.7856 47.5337Z" fill="white"/>
<path opacity="0.1" d="M33.0244 56.3486C35.9648 56.3486 38.3485 53.9649 38.3485 51.0244C38.3485 48.084 35.9648 45.7003 33.0244 45.7003C30.0839 45.7003 27.7002 48.084 27.7002 51.0244C27.7002 53.9649 30.0839 56.3486 33.0244 56.3486Z" fill="white"/>
</g>
<defs>
<filter id="filter0_i_30_1120" x="0" y="0" width="128" height="128" filterUnits="userSpaceOnUse" color-interpolation-filters="sRGB">
<feFlood flood-opacity="0" result="BackgroundImageFix"/>
<feBlend mode="normal" in="SourceGraphic" in2="BackgroundImageFix" result="shape"/>
<feColorMatrix in="SourceAlpha" type="matrix" values="0 0 0 0 0 0 0 0 0 0 0 0 0 0 0 0 0 0 127 0" result="hardAlpha"/>
<feOffset dx="-6" dy="-6"/>
<feComposite in2="hardAlpha" operator="arithmetic" k2="-1" k3="1"/>
<feColorMatrix type="matrix" values="0 0 0 0 0 0 0 0 0 0 0 0 0 0 0 0 0 0 0.04 0"/>
<feBlend mode="normal" in2="shape" result="effect1_innerShadow_30_1120"/>
</filter>
<filter id="filter1_f_30_1120" x="9" y="56" width="47" height="36" filterUnits="userSpaceOnUse" color-interpolation-filters="sRGB">
<feFlood flood-opacity="0" result="BackgroundImageFix"/>
<feBlend mode="normal" in="SourceGraphic" in2="BackgroundImageFix" result="shape"/>
<feGaussianBlur stdDeviation="5" result="effect1_foregroundBlur_30_1120"/>
</filter>
<filter id="filter2_f_30_1120" x="71" y="56" width="47" height="36" filterUnits="userSpaceOnUse" color-interpolation-filters="sRGB">
<feFlood flood-opacity="0" result="BackgroundImageFix"/>
<feBlend mode="normal" in="SourceGraphic" in2="BackgroundImageFix" result="shape"/>
<feGaussianBlur stdDeviation="5" result="effect1_foregroundBlur_30_1120"/>
</filter>
<clipPath id="clip0_30_1120">
<rect width="87.4601" height="29.9649" fill="white" transform="translate(20 38)"/>
</clipPath>
</defs>
</svg>