<svg width="128" height="128" viewBox="0 0 128 128" fill="none" xmlns="http://www.w3.org/2000/svg">
<g filter="url(#filter0_i_30_1156)">
<path d="M128 30.2436V97.7124C128.004 101.688 127.224 105.626 125.705 109.301C124.186 112.975 121.958 116.314 119.148 119.127C116.338 121.94 113.001 124.171 109.328 125.694C105.655 127.216 101.718 128 97.7417 128H30.273C22.2478 127.996 14.5522 124.807 8.87623 119.134C3.20021 113.461 0.00778584 105.767 1.42309e-05 97.7417V30.2729C-0.00384206 26.2976 0.776073 22.3605 2.29515 18.6868C3.81422 15.0132 6.04265 11.675 8.85297 8.86333C11.6633 6.05165 15.0003 3.82161 18.6733 2.30075C22.3462 0.779896 26.2829 -0.00192622 30.2583 3.56376e-06H97.7271C101.701 -0.00192302 105.636 0.778823 109.308 2.29766C112.979 3.81651 116.316 6.0437 119.127 8.85208C121.938 11.6605 124.169 14.995 125.691 18.6654C127.214 22.3358 127.998 26.27 128 30.2436V30.2436Z" fill="#D84BE5"/>
</g>
<g style="mix-blend-mode:soft-light" opacity="0.4">
<path d="M64.3033 49.8949L60.8125 68.2435L64.3033 71.0302V49.8949Z" fill="black"/>
</g>
<path fill-rule="evenodd" clip-rule="evenodd" d="M45 100C50.2 78.6232 78.8289 78.7102 84 100C74.2789 92.1923 53.5944 92.5551 45 100Z" fill="#2B1607"/>
<path d="M44.5801 100.539C44.4749 100.54 44.372 100.51 44.2843 100.453C44.1762 100.389 44.092 100.293 44.044 100.179C43.9961 100.065 43.987 99.9396 44.0181 99.8204C46.5026 89.9286 54.5625 83.6025 64.5302 83.6025C74.5126 83.6025 82.5429 90.0149 84.9831 99.8779C85.0122 99.9935 85.0036 100.115 84.9586 100.226C84.9135 100.337 84.8343 100.431 84.7317 100.496C84.6298 100.565 84.5085 100.603 84.3841 100.603C84.2598 100.603 84.1385 100.565 84.0366 100.496C74.6309 93.0629 53.7935 93.0629 44.9202 100.496C44.8137 100.543 44.6953 100.558 44.5801 100.539V100.539ZM64.3231 93.7387C71.3922 93.7387 78.5352 95.3346 83.4303 98.512C82.2756 94.5192 79.8063 91.0045 76.4006 88.5063C72.995 86.0082 68.8408 84.6644 64.5745 84.6809V84.6809C60.3133 84.6641 56.1629 86.0003 52.7542 88.4864C49.3455 90.9725 46.8648 94.4725 45.6892 98.4545C50.2738 95.3058 57.2984 93.7387 64.3231 93.7387Z" fill="black"/>
<path d="M88.9997 112.018C89.0072 112.665 88.8853 113.307 88.6409 113.907C88.3966 114.508 88.0346 115.055 87.5757 115.517C86.6487 116.452 85.383 116.985 84.057 117C82.7309 117.015 81.4532 116.51 80.5048 115.597C79.5565 114.684 79.0152 113.437 79 112.131C79 108.19 82.157 106.319 83.8427 100C85.3712 106.15 88.9568 107.655 88.9997 112.018Z" fill="#4ABCF4"/>
<path d="M95.0023 58.9985C92.1089 59.0326 89.2837 58.1074 86.9565 56.3638C84.6292 54.6201 82.9274 52.1533 82.1097 49.3388C82.0276 49.118 81.9909 48.8825 82.0019 48.6468C82.0129 48.4111 82.0714 48.1801 82.1738 47.9682C82.2761 47.7563 82.4202 47.5679 82.5971 47.4146C82.774 47.2613 82.98 47.1463 83.2023 47.0768C83.4247 47.0072 83.6588 46.9846 83.8901 47.0103C84.1214 47.0359 84.3451 47.1094 84.5474 47.226C84.7497 47.3427 84.9263 47.5001 85.0663 47.6886C85.2063 47.877 85.3068 48.0926 85.3615 48.3219C85.9661 50.4367 87.2377 52.2921 88.9816 53.6039C90.7255 54.9157 92.8454 55.6116 95.0166 55.5849V55.5849C97.1887 55.6012 99.3073 54.9018 101.054 53.592C102.8 52.2822 104.08 50.4328 104.7 48.3219C104.854 47.9103 105.156 47.5733 105.545 47.3797C105.935 47.1862 106.383 47.1506 106.798 47.2803C107.212 47.4099 107.563 47.6951 107.777 48.0776C107.992 48.46 108.054 48.9111 107.952 49.3388C107.13 52.1618 105.419 54.6342 103.08 56.3785C100.742 58.1228 97.9049 59.0429 95.0023 58.9985V58.9985Z" fill="black"/>
<path d="M32.9984 58.9991C30.1015 59.031 27.2734 58.1007 24.9434 56.3494C22.6134 54.5981 20.9086 52.1214 20.0877 49.2952C20.0161 49.0758 19.9879 48.8442 20.0047 48.6137C20.0216 48.3831 20.0831 48.1583 20.1858 47.9521C20.2885 47.7459 20.4303 47.5624 20.603 47.4123C20.7758 47.2621 20.976 47.1482 21.1923 47.0771C21.4061 47.0097 21.6309 46.9862 21.8537 47.0078C22.0765 47.0293 22.2928 47.0957 22.4903 47.2029C22.6877 47.3101 22.8623 47.456 23.0039 47.6323C23.1456 47.8086 23.2514 48.0117 23.3154 48.2299C23.9354 50.3456 25.2126 52.2 26.9557 53.5153C28.6987 54.8306 30.8137 55.5361 32.984 55.5261V55.5261C35.1616 55.5457 37.2865 54.8445 39.0382 53.5285C40.7899 52.2125 42.0736 50.3528 42.6957 48.2299C42.8491 47.8164 43.1518 47.4778 43.542 47.2834C43.9323 47.089 44.3807 47.0532 44.796 47.1835C45.2112 47.3138 45.562 47.6002 45.7768 47.9844C45.9916 48.3687 46.0543 48.8218 45.9521 49.2514C45.1328 52.0905 43.4238 54.5795 41.0853 56.3392C38.7468 58.099 35.907 59.033 32.9984 58.9991V58.9991Z" fill="black"/>
<path d="M68.4574 32.5792L74.301 21.7483L67.6631 23.0986C67.29 23.2035 66.8915 23.1681 66.5426 22.9991C66.4083 22.9214 66.2928 22.8148 66.2045 22.687C66.1162 22.5592 66.0573 22.4134 66.032 22.26C65.9942 22.105 65.9898 21.9437 66.0192 21.7868C66.0485 21.6299 66.1109 21.4811 66.2022 21.3503C66.4505 21.0478 66.8066 20.8541 67.195 20.8102L75.7052 19.0619C76.8115 18.8345 77.4782 19.2325 77.6767 20.2701C77.793 20.6741 77.793 21.1027 77.6767 21.5067C77.4364 22.0772 77.1616 22.6326 76.8541 23.1697L71.3792 33.2614L79.3362 31.6269C79.7069 31.5217 80.1022 31.5468 80.4567 31.6979C80.5927 31.7771 80.7092 31.8859 80.7976 32.0163C80.886 32.1467 80.944 32.2954 80.9673 32.4512C81.0057 32.6109 81.0103 32.7768 80.981 32.9383C80.9517 33.0998 80.8891 33.2535 80.7971 33.3894C80.5411 33.6799 80.1881 33.8669 79.8043 33.9153L70.0459 35.9194C69.5165 36.0636 68.953 36.0132 68.4574 35.7773C68.2589 35.6621 68.0885 35.5042 67.9585 35.3149C67.8285 35.1256 67.7421 34.9097 67.7056 34.6828C67.6765 34.5183 67.6765 34.3499 67.7056 34.1853C67.7312 34.0323 67.779 33.8839 67.8475 33.7447C67.8475 33.5883 68.0035 33.4036 68.1311 33.1761L68.4574 32.5792Z" fill="black"/>
<path d="M82.3788 22.549L91.3582 10.0977L82.9036 10.7086C82.4267 10.7773 81.9409 10.6742 81.5333 10.4177C81.3769 10.2996 81.2487 10.1482 81.158 9.97469C81.0673 9.80113 81.0162 9.60966 81.0086 9.41405C80.986 9.21329 81.0082 9.01002 81.0738 8.81888C81.1393 8.62773 81.2465 8.45345 81.3876 8.30856C81.7418 7.98422 82.2042 7.80278 82.6849 7.79946L93.5885 7.01398C95.0462 6.89761 95.7459 7.50854 95.8479 8.81767C95.8919 9.31573 95.8066 9.8167 95.6001 10.2723C95.2133 10.965 94.7799 11.6308 94.3027 12.265L85.9064 23.9018L96.1103 23.1599C96.5854 23.0869 97.0711 23.1849 97.4805 23.4363C97.6374 23.553 97.7651 23.7043 97.8536 23.8784C97.9421 24.0525 97.989 24.2447 97.9907 24.44C98.0135 24.6407 97.9942 24.8439 97.934 25.0367C97.8737 25.2296 97.7739 25.4078 97.6409 25.56C97.277 25.8875 96.8044 26.0688 96.3144 26.0691L83.8802 26.9709C83.2021 27.0698 82.5114 26.9144 81.9415 26.5346C81.7123 26.3659 81.5248 26.1471 81.3934 25.895C81.262 25.6429 81.1902 25.3641 81.1835 25.08C81.1462 24.878 81.1462 24.671 81.1835 24.469C81.2451 24.2854 81.3283 24.1096 81.4313 23.9454C81.5285 23.7708 81.6742 23.5527 81.8686 23.2908L82.3788 22.549Z" fill="black"/>
<path d="M102.641 22.9956L119.377 9.40152L107.745 7.11153C107.076 7.03656 106.459 6.71411 106.015 6.20721C105.846 5.99146 105.727 5.74086 105.667 5.47349C105.607 5.20613 105.606 4.92866 105.666 4.6611C105.714 4.3829 105.821 4.11817 105.979 3.88435C106.137 3.65053 106.342 3.45294 106.582 3.30461C107.186 2.98811 107.888 2.91507 108.545 3.10041L123.535 6.01759C125.483 6.39682 126.269 7.47618 125.92 9.314C125.815 10.0483 125.502 10.7369 125.018 11.2977C124.248 12.0529 123.433 12.7592 122.575 13.4126L106.945 26.0732L120.889 28.8154C121.559 28.8936 122.181 29.203 122.648 29.6905C122.815 29.9097 122.932 30.1633 122.99 30.4332C123.048 30.7031 123.045 30.9824 122.983 31.2512C122.947 31.5472 122.846 31.8316 122.688 32.0838C122.53 32.3361 122.317 32.5499 122.067 32.7098C121.458 33.0144 120.759 33.082 120.104 32.8994L102.99 29.4717C102.037 29.352 101.16 28.891 100.519 28.1736C100.285 27.8492 100.125 27.4775 100.049 27.0844C99.9738 26.6913 99.9852 26.2864 100.082 25.8982C100.138 25.613 100.247 25.3409 100.402 25.0959C100.548 24.8599 100.724 24.6441 100.926 24.4542C101.129 24.2646 101.406 24.0312 101.769 23.7395L102.641 22.9956Z" fill="black"/>
<defs>
<filter id="filter0_i_30_1156" x="0" y="0" width="128" height="128" filterUnits="userSpaceOnUse" color-interpolation-filters="sRGB">
<feFlood flood-opacity="0" result="BackgroundImageFix"/>
<feBlend mode="normal" in="SourceGraphic" in2="BackgroundImageFix" result="shape"/>
<feColorMatrix in="SourceAlpha" type="matrix" values="0 0 0 0 0 0 0 0 0 0 0 0 0 0 0 0 0 0 127 0" result="hardAlpha"/>
<feOffset dx="-6" dy="-6"/>
<feComposite in2="hardAlpha" operator="arithmetic" k2="-1" k3="1"/>
<feColorMatrix type="matrix" values="0 0 0 0 0 0 0 0 0 0 0 0 0 0 0 0 0 0 0.04 0"/>
<feBlend mode="normal" in2="shape" result="effect1_innerShadow_30_1156"/>
</filter>
</defs>
</svg>