<svg width="128" height="128" viewBox="0 0 128 128" fill="none" xmlns="http://www.w3.org/2000/svg">
<g filter="url(#filter0_i_30_1096)">
<path d="M128 30.2436V97.7124C128.004 101.688 127.224 105.626 125.705 109.301C124.186 112.975 121.958 116.314 119.148 119.127C116.338 121.94 113.001 124.171 109.328 125.694C105.655 127.216 101.718 128 97.7417 128H30.273C22.2478 127.996 14.5522 124.807 8.87623 119.134C3.20021 113.461 0.00778584 105.767 1.42309e-05 97.7417V30.2729C-0.00384206 26.2976 0.776073 22.3605 2.29515 18.6868C3.81422 15.0132 6.04265 11.675 8.85297 8.86333C11.6633 6.05165 15.0003 3.82161 18.6733 2.30075C22.3462 0.779896 26.2829 -0.00192622 30.2583 3.56376e-06H97.7271C101.701 -0.00192302 105.636 0.778823 109.308 2.29766C112.979 3.81651 116.316 6.0437 119.127 8.85208C121.938 11.6605 124.169 14.995 125.691 18.6654C127.214 22.3358 127.998 26.27 128 30.2436V30.2436Z" fill="#D9915B"/>
</g>
<g style="mix-blend-mode:soft-light" opacity="0.4">
<path d="M64.3033 49.8949L60.8125 68.2435L64.3033 71.0302V49.8949Z" fill="black"/>
</g>
<g style="mix-blend-mode:soft-light" filter="url(#filter1_f_30_1096)">
<path d="M37.8885 66H27.1115C22.6317 66 19 69.5817 19 74C19 78.4183 22.6317 82 27.1115 82H37.8885C42.3683 82 46 78.4183 46 74C46 69.5817 42.3683 66 37.8885 66Z" fill="#C140A3"/>
</g>
<g style="mix-blend-mode:soft-light" filter="url(#filter2_f_30_1096)">
<path d="M99.9043 66H89.0957C84.6246 66 81 69.5785 81 73.9929V74.0071C81 78.4215 84.6246 82 89.0957 82H99.9043C104.375 82 108 78.4215 108 74.0071V73.9929C108 69.5785 104.375 66 99.9043 66Z" fill="#C140A3"/>
</g>
<path d="M64.5423 83H63.789C54.0857 83.218 42.994 88.2904 40.0845 99.1473C40.0178 99.3278 39.9901 99.52 40.0031 99.7116C40.0162 99.9032 40.0697 100.09 40.1603 100.26C40.2509 100.43 40.3766 100.58 40.5293 100.7C40.6819 100.819 40.8583 100.906 41.0471 100.955C41.2359 101.004 41.4329 101.013 41.6256 100.983C41.8183 100.952 42.0024 100.882 42.1662 100.778C42.3299 100.673 42.4698 100.537 42.5767 100.376C42.6837 100.215 42.7554 100.034 42.7873 99.8449C45.3423 90.3833 55.2081 85.9504 63.8481 85.7615C72.0893 85.6016 82.8856 89.6023 86.312 100.328C86.4917 100.582 86.7488 100.772 87.046 100.872C87.3431 100.972 87.6649 100.976 87.9645 100.884C88.2641 100.791 88.5261 100.607 88.7123 100.358C88.8985 100.11 88.9993 99.809 89 99.5C85.8542 89.6895 76.2985 83 64.5423 83Z" fill="black"/>
<path d="M94 68C97.4478 68 100.754 66.6304 103.192 64.1924C105.63 61.7545 107 58.4479 107 55.0002V54.3414C107 43.8888 95.4493 37.1254 88.0709 38.0916C81.527 38.926 81 43.1129 81 49.3347V55.0002C81.0039 58.4467 82.3748 61.7511 84.8119 64.1882C87.249 66.6253 90.5534 67.9961 94 68Z" fill="black"/>
<path d="M89.8247 47.6694C91.0884 47.6694 92.1128 46.645 92.1128 45.3813C92.1128 44.1177 91.0884 43.0933 89.8247 43.0933C88.561 43.0933 87.5366 44.1177 87.5366 45.3813C87.5366 46.645 88.561 47.6694 89.8247 47.6694Z" fill="white"/>
<path opacity="0.1" d="M94.0637 56.4843C97.0041 56.4843 99.3878 54.1006 99.3878 51.1602C99.3878 48.2197 97.0041 45.836 94.0637 45.836C91.1232 45.836 88.7395 48.2197 88.7395 51.1602C88.7395 54.1006 91.1232 56.4843 94.0637 56.4843Z" fill="white"/>
<path d="M32.9927 68C29.5455 67.9961 26.2408 66.6248 23.8046 64.1873C21.3684 61.7497 20 58.4454 20 55.0002V54.3414C20 43.8888 31.5425 37.1254 38.9251 38.0916C45.4873 38.926 46 43.1129 46 49.3347V55.0002C46 58.4479 44.6296 61.7545 42.1902 64.1924C39.7509 66.6304 36.4424 68 32.9927 68V68Z" fill="black"/>
<path d="M28.8393 47.6694C30.103 47.6694 31.1274 46.645 31.1274 45.3813C31.1274 44.1177 30.103 43.0933 28.8393 43.0933C27.5757 43.0933 26.5513 44.1177 26.5513 45.3813C26.5513 46.645 27.5757 47.6694 28.8393 47.6694Z" fill="white"/>
<path opacity="0.1" d="M33.0783 56.4843C36.0188 56.4843 38.4025 54.1006 38.4025 51.1602C38.4025 48.2197 36.0188 45.836 33.0783 45.836C30.1379 45.836 27.7542 48.2197 27.7542 51.1602C27.7542 54.1006 30.1379 56.4843 33.0783 56.4843Z" fill="white"/>
<defs>
<filter id="filter0_i_30_1096" x="0" y="0" width="128" height="128" filterUnits="userSpaceOnUse" color-interpolation-filters="sRGB">
<feFlood flood-opacity="0" result="BackgroundImageFix"/>
<feBlend mode="normal" in="SourceGraphic" in2="BackgroundImageFix" result="shape"/>
<feColorMatrix in="SourceAlpha" type="matrix" values="0 0 0 0 0 0 0 0 0 0 0 0 0 0 0 0 0 0 127 0" result="hardAlpha"/>
<feOffset dx="-6" dy="-6"/>
<feComposite in2="hardAlpha" operator="arithmetic" k2="-1" k3="1"/>
<feColorMatrix type="matrix" values="0 0 0 0 0 0 0 0 0 0 0 0 0 0 0 0 0 0 0.04 0"/>
<feBlend mode="normal" in2="shape" result="effect1_innerShadow_30_1096"/>
</filter>
<filter id="filter1_f_30_1096" x="9" y="56" width="47" height="36" filterUnits="userSpaceOnUse" color-interpolation-filters="sRGB">
<feFlood flood-opacity="0" result="BackgroundImageFix"/>
<feBlend mode="normal" in="SourceGraphic" in2="BackgroundImageFix" result="shape"/>
<feGaussianBlur stdDeviation="5" result="effect1_foregroundBlur_30_1096"/>
</filter>
<filter id="filter2_f_30_1096" x="71" y="56" width="47" height="36" filterUnits="userSpaceOnUse" color-interpolation-filters="sRGB">
<feFlood flood-opacity="0" result="BackgroundImageFix"/>
<feBlend mode="normal" in="SourceGraphic" in2="BackgroundImageFix" result="shape"/>
<feGaussianBlur stdDeviation="5" result="effect1_foregroundBlur_30_1096"/>
</filter>
</defs>
</svg>