<svg width="132" height="128" viewBox="0 0 132 128" fill="none" xmlns="http://www.w3.org/2000/svg">
<g filter="url(#filter0_i_30_1108)">
<path d="M128 30.2436V97.7124C128.004 101.688 127.224 105.626 125.705 109.301C124.186 112.975 121.958 116.314 119.148 119.127C116.338 121.94 113.001 124.171 109.328 125.694C105.655 127.216 101.718 128 97.7417 128H30.273C22.2478 127.996 14.5522 124.807 8.87623 119.134C3.20021 113.461 0.00778584 105.767 1.42309e-05 97.7417V30.2729C-0.00384206 26.2976 0.776073 22.3605 2.29515 18.6868C3.81422 15.0132 6.04265 11.675 8.85297 8.86333C11.6633 6.05165 15.0003 3.82161 18.6733 2.30075C22.3462 0.779896 26.2829 -0.00192622 30.2583 3.56376e-06H97.7271C101.701 -0.00192302 105.636 0.778823 109.308 2.29766C112.979 3.81651 116.316 6.0437 119.127 8.85208C121.938 11.6605 124.169 14.995 125.691 18.6654C127.214 22.3358 127.998 26.27 128 30.2436V30.2436Z" fill="#D84BE5"/>
</g>
<g style="mix-blend-mode:soft-light" opacity="0.4">
<path d="M64.3033 49.8949L60.8125 68.2435L64.3033 71.0302V49.8949Z" fill="black"/>
</g>
<g style="mix-blend-mode:soft-light" filter="url(#filter1_f_30_1108)">
<path d="M37.8885 66H27.1115C22.6317 66 19 69.5817 19 74C19 78.4183 22.6317 82 27.1115 82H37.8885C42.3683 82 46 78.4183 46 74C46 69.5817 42.3683 66 37.8885 66Z" fill="#C140A3"/>
</g>
<g style="mix-blend-mode:soft-light" filter="url(#filter2_f_30_1108)">
<path d="M99.9043 66H89.0957C84.6246 66 81 69.5785 81 73.9929V74.0071C81 78.4215 84.6246 82 89.0957 82H99.9043C104.375 82 108 78.4215 108 74.0071V73.9929C108 69.5785 104.375 66 99.9043 66Z" fill="#C140A3"/>
</g>
<path d="M64.2925 107C63.9497 107 63.621 106.854 63.3786 106.595C63.1362 106.335 63 105.984 63 105.617C63 105.25 63.1362 104.898 63.3786 104.639C63.621 104.379 63.9497 104.233 64.2925 104.233C68.0612 104.233 70.2789 102.865 70.3878 100.491C70.4966 97.7686 67.8707 94.4488 64.1701 94.0702C63.8429 94.0298 63.5428 93.8559 63.3325 93.5847C63.1221 93.3134 63.0176 92.9658 63.0408 92.6141C63.0614 92.272 63.1941 91.9486 63.4156 91.7008C63.6371 91.4531 63.9332 91.297 64.2517 91.26C67.9116 91.0125 70.3605 88.013 70.2925 85.4358C70.2925 83.1352 67.9932 81.7665 64.3333 81.7665C64.0611 81.6708 63.8241 81.4855 63.6561 81.2371C63.4881 80.9887 63.3976 80.6899 63.3976 80.3833C63.3976 80.0766 63.4881 79.7778 63.6561 79.5294C63.8241 79.281 64.0611 79.0957 64.3333 79C70.4966 79 72.7823 82.2761 72.8776 85.3484C72.8286 86.8591 72.4061 88.3289 71.6532 89.6078C70.9003 90.8868 69.8439 91.9292 68.5918 92.6287C69.9019 93.4124 70.9978 94.5489 71.771 95.9255C72.5443 97.3021 72.9679 98.8711 73 100.477C72.8367 103.709 70.483 107 64.2925 107Z" fill="black"/>
<path fill-rule="evenodd" clip-rule="evenodd" d="M131.8 81.2666C131.714 81.7625 131.594 82.2517 131.441 82.7304C128.564 93.138 115.131 99.0224 107.637 102.638C101.554 96.3144 90.2344 85.3799 92.2336 74.0209C92.4863 72.5151 93.0236 71.0735 93.8157 69.7759C97.7853 63.1889 107.551 62.3399 113.232 70.742C122.912 63.789 133.598 71.0787 131.8 81.2666Z" fill="#CE0F0F"/>
<path opacity="0.2" fill-rule="evenodd" clip-rule="evenodd" d="M131.8 81.2668C131.714 81.7626 131.594 82.2518 131.441 82.7305C126.925 91.0595 115.62 96.0364 109.033 99.2274C102.877 92.977 91.615 82.1011 93.6142 70.6836C93.6142 70.3908 93.7293 70.1127 93.8012 69.8346C97.7708 63.2475 107.537 62.3985 113.218 70.8007C122.912 63.7891 133.598 71.0788 131.8 81.2668Z" fill="white"/>
<path opacity="0.4" fill-rule="evenodd" clip-rule="evenodd" d="M130.075 79.7882C129.528 75.3969 120.568 69.8491 116.857 70.9177C124.077 68.8245 129.125 72.3083 130.075 79.7882Z" fill="white"/>
<path d="M82.7 57C82.5289 56.9982 82.3592 56.9685 82.1973 56.9121C81.9839 56.8453 81.7855 56.7361 81.6136 56.5908C81.4416 56.4455 81.2996 56.267 81.1955 56.0655C81.0914 55.864 81.0273 55.6435 81.007 55.4167C80.9867 55.1899 81.0105 54.9612 81.0771 54.7438C81.8905 51.9013 83.5951 49.4093 85.9296 47.6496C88.2642 45.8899 91.1 44.9596 94.0024 45.0013V45.0013C96.9015 44.9742 99.7305 45.91 102.062 47.6676C104.394 49.4251 106.102 51.9089 106.928 54.7438C107.058 55.1848 107.011 55.6604 106.799 56.0666C106.586 56.4729 106.225 56.7768 105.793 56.9121C105.58 56.9821 105.355 57.0079 105.133 56.9881C104.91 56.9684 104.693 56.9033 104.495 56.7969C104.297 56.6904 104.122 56.5447 103.98 56.3683C103.838 56.1918 103.731 55.9882 103.668 55.7694C103.045 53.638 101.76 51.771 100.006 50.4497C98.2523 49.1285 96.125 48.4246 93.945 48.4442C91.7747 48.4373 89.6605 49.1471 87.9184 50.4674C86.1763 51.7877 84.8998 53.6477 84.2797 55.7694C84.1732 56.1158 83.9642 56.4201 83.6813 56.6404C83.3984 56.8608 83.0556 56.9864 82.7 57V57Z" fill="black"/>
<path d="M21.7126 56.9999C21.5413 57.0015 21.3711 56.9717 21.2101 56.912C20.9954 56.8467 20.7956 56.7386 20.6222 56.594C20.4487 56.4494 20.3051 56.2711 20.1996 56.0694C20.0941 55.8678 20.0289 55.6468 20.0076 55.4192C19.9864 55.1917 20.0096 54.9621 20.0759 54.7437C20.8932 51.9037 22.5984 49.4144 24.9314 47.6554C27.2643 45.8964 30.097 44.9642 32.9975 45.0011V45.0011C35.8969 44.9691 38.7273 45.9031 41.0593 47.6614C43.3913 49.4197 45.0976 51.9062 45.9192 54.7437C45.9877 54.9611 46.0131 55.1902 45.9937 55.4176C45.9743 55.6451 45.9106 55.8663 45.8063 56.0683C45.7019 56.2703 45.5591 56.449 45.3862 56.5939C45.2133 56.7387 45.0137 56.8469 44.7993 56.912C44.3671 57.0497 43.899 57.0066 43.4979 56.7923C43.0968 56.5781 42.7955 56.2101 42.66 55.7693C42.0381 53.6403 40.7555 51.775 39.0051 50.454C37.2548 49.1329 35.1315 48.4275 32.9544 48.444V48.444C30.7823 48.4339 28.6655 49.1422 26.921 50.4628C25.1764 51.7834 23.8982 53.6452 23.2776 55.7693C23.1738 56.1146 22.9674 56.4184 22.6871 56.6389C22.4068 56.8593 22.0663 56.9855 21.7126 56.9999V56.9999Z" fill="black"/>
<defs>
<filter id="filter0_i_30_1108" x="0" y="0" width="128" height="128" filterUnits="userSpaceOnUse" color-interpolation-filters="sRGB">
<feFlood flood-opacity="0" result="BackgroundImageFix"/>
<feBlend mode="normal" in="SourceGraphic" in2="BackgroundImageFix" result="shape"/>
<feColorMatrix in="SourceAlpha" type="matrix" values="0 0 0 0 0 0 0 0 0 0 0 0 0 0 0 0 0 0 127 0" result="hardAlpha"/>
<feOffset dx="-6" dy="-6"/>
<feComposite in2="hardAlpha" operator="arithmetic" k2="-1" k3="1"/>
<feColorMatrix type="matrix" values="0 0 0 0 0 0 0 0 0 0 0 0 0 0 0 0 0 0 0.04 0"/>
<feBlend mode="normal" in2="shape" result="effect1_innerShadow_30_1108"/>
</filter>
<filter id="filter1_f_30_1108" x="9" y="56" width="47" height="36" filterUnits="userSpaceOnUse" color-interpolation-filters="sRGB">
<feFlood flood-opacity="0" result="BackgroundImageFix"/>
<feBlend mode="normal" in="SourceGraphic" in2="BackgroundImageFix" result="shape"/>
<feGaussianBlur stdDeviation="5" result="effect1_foregroundBlur_30_1108"/>
</filter>
<filter id="filter2_f_30_1108" x="71" y="56" width="47" height="36" filterUnits="userSpaceOnUse" color-interpolation-filters="sRGB">
<feFlood flood-opacity="0" result="BackgroundImageFix"/>
<feBlend mode="normal" in="SourceGraphic" in2="BackgroundImageFix" result="shape"/>
<feGaussianBlur stdDeviation="5" result="effect1_foregroundBlur_30_1108"/>
</filter>
</defs>
</svg>