<svg width="111" height="20" viewBox="0 0 111 20" fill="none" xmlns="http://www.w3.org/2000/svg">
<path fill-rule="evenodd" clip-rule="evenodd" d="M77.1362 19.6161C73.2385 19.7117 69.9593 19.8134 68.2667 19.9038C64.9233 20.0822 56.9914 20.0056 50.6397 19.7311C45.7568 19.5209 37.7546 18.9955 30.49 18.455C28.4585 18.4925 26.4009 18.5394 24.3732 18.5957C6.2589 19.0986 3.93543 19.0234 3.01879 17.9046C2.06921 16.745 2.06562 16.6463 2.97192 16.6108C3.22057 16.601 3.47563 16.5308 3.69377 16.4235C3.28926 16.2638 3.05514 16.0731 2.8778 15.8431C2.83827 15.7918 2.80044 15.7425 2.76429 15.6952C1.36793 16.0111 1.16643 15.833 1.3918 14.5592C1.4423 14.2739 1.43796 13.9453 1.38838 13.609C1.25255 13.4949 1.21443 13.2919 1.24376 12.9748C1.108 12.5357 0.903613 12.122 0.652713 11.8158C-0.282969 10.6737 -0.256944 10.5763 1.01956 10.4415L1.0799 10.4353C0.965465 10.1465 0.82159 9.88063 0.654723 9.66424C-0.253912 8.48601 -0.22563 8.38962 1.05345 8.30505C1.81063 8.25506 2.6202 8.25074 2.85249 8.29542C3.04513 8.33254 3.7016 7.7718 4.41953 6.97904C3.86881 6.87801 4.05487 6.72143 4.8386 6.34171C4.92326 6.30068 5.00624 6.25684 5.08724 6.21063C5.46784 5.79377 5.87094 5.45353 6.29635 5.18994C6.73736 4.62856 6.81642 4.11812 6.25929 4.09278C4.63195 4.01878 6.64137 2.61776 10.429 1.18557C14.5501 -0.372736 14.7804 -0.373902 34.8707 1.05847C39.1507 1.36361 43.5516 1.71702 47.5472 2.06932C49.7914 1.95443 52.507 1.85719 55.2837 1.7921C57.3923 1.66118 59.5305 1.54782 61.5191 1.46542C73.2457 0.977696 102.548 0.749281 98.6444 1.17601C95.3228 1.53908 97.0517 2.293 102.305 2.7721C105.013 3.01911 107.329 3.57871 107.453 4.01562C107.577 4.45256 108.399 4.78173 109.28 4.74718C110.473 4.70039 110.891 5.06702 110.917 6.18188C110.927 6.60708 110.858 6.94374 110.679 7.22162C110.907 7.45824 111 7.8238 111 8.35637C111 9.36439 110.57 9.85817 109.281 10.217C109.846 10.238 109.972 10.3161 109.726 10.5178C109.905 10.6995 109.88 11.0604 109.74 11.6819C109.692 11.8933 109.674 12.1318 109.681 12.3819C109.88 12.4344 109.879 12.5166 109.698 12.6514C109.762 13.308 109.988 14.0046 110.322 14.4812C111.175 15.6989 111.145 15.794 109.897 15.8219C109.214 15.8372 108.487 15.8113 108.205 15.7637C108.012 16.0406 107.488 16.4291 106.697 16.8801C106.513 17.0699 106.324 17.2762 106.135 17.493C105.068 18.72 103.839 19.3159 102.452 19.2795C102.142 19.2713 101.74 19.2658 101.26 19.2626C98.3976 20.1399 94.9344 20.0642 78.429 19.6497C77.9991 19.6389 77.568 19.6277 77.1362 19.6161ZM9.45307 14.6898C9.38449 14.6734 9.31653 14.657 9.24929 14.6404C9.08372 14.6858 8.91915 14.7332 8.75623 14.7826C8.98985 14.754 9.22256 14.723 9.45307 14.6898ZM5.09775 16.7584C5.46777 16.8139 5.90013 16.8636 6.40789 16.9085C5.47253 16.9782 5.07031 16.9465 5.09775 16.7584Z" fill="#00FF00"/>
</svg>