<svg width="128" height="128" viewBox="0 0 128 128" fill="none" xmlns="http://www.w3.org/2000/svg">
<g filter="url(#filter0_i_30_1132)">
<path d="M128 30.2436V97.7124C128.004 101.688 127.224 105.626 125.705 109.301C124.186 112.975 121.958 116.314 119.148 119.127C116.338 121.94 113.001 124.171 109.328 125.694C105.655 127.216 101.718 128 97.7417 128H30.273C22.2478 127.996 14.5522 124.807 8.87623 119.134C3.20021 113.461 0.00778584 105.767 1.42309e-05 97.7417V30.2729C-0.00384206 26.2976 0.776073 22.3605 2.29515 18.6868C3.81422 15.0132 6.04265 11.675 8.85297 8.86333C11.6633 6.05165 15.0003 3.82161 18.6733 2.30075C22.3462 0.779896 26.2829 -0.00192622 30.2583 3.56376e-06H97.7271C101.701 -0.00192302 105.636 0.778823 109.308 2.29766C112.979 3.81651 116.316 6.0437 119.127 8.85208C121.938 11.6605 124.169 14.995 125.691 18.6654C127.214 22.3358 127.998 26.27 128 30.2436V30.2436Z" fill="#FCBC34"/>
</g>
<g style="mix-blend-mode:soft-light" opacity="0.4">
<path d="M64.3033 49.8949L60.8125 68.2435L64.3033 71.0302V49.8949Z" fill="black"/>
</g>
<path fill-rule="evenodd" clip-rule="evenodd" d="M45 100C50.2 78.6232 78.8289 78.7102 84 100C74.2789 92.1923 53.5944 92.5551 45 100Z" fill="#2B1607"/>
<path d="M44.5801 100.539C44.4749 100.54 44.372 100.51 44.2843 100.453C44.1762 100.389 44.092 100.293 44.044 100.179C43.9961 100.065 43.987 99.9396 44.0181 99.8204C46.5026 89.9286 54.5625 83.6025 64.5302 83.6025C74.5126 83.6025 82.5429 90.0149 84.9831 99.8779C85.0122 99.9935 85.0036 100.115 84.9586 100.226C84.9135 100.337 84.8343 100.431 84.7317 100.496C84.6298 100.565 84.5085 100.603 84.3841 100.603C84.2598 100.603 84.1385 100.565 84.0366 100.496C74.6309 93.0629 53.7935 93.0629 44.9202 100.496C44.8137 100.543 44.6953 100.558 44.5801 100.539V100.539ZM64.3231 93.7387C71.3922 93.7387 78.5352 95.3346 83.4303 98.512C82.2756 94.5192 79.8063 91.0045 76.4006 88.5063C72.995 86.0082 68.8408 84.6644 64.5745 84.6809V84.6809C60.3133 84.6641 56.1629 86.0003 52.7542 88.4864C49.3455 90.9725 46.8648 94.4725 45.6892 98.4545C50.2738 95.3058 57.2984 93.7387 64.3231 93.7387Z" fill="black"/>
<path d="M94 68C90.5522 68 87.2456 66.6304 84.8076 64.1924C82.3696 61.7545 81 58.4479 81 55.0002V54.3414C81 43.8888 92.5507 37.1254 99.9291 38.0916C106.473 38.926 107 43.1129 107 49.3347V55.0002C106.996 58.4467 105.625 61.7511 103.188 64.1882C100.751 66.6253 97.4466 67.9961 94 68Z" fill="black"/>
<path d="M89.8247 47.6694C91.0884 47.6694 92.1128 46.645 92.1128 45.3813C92.1128 44.1177 91.0884 43.0933 89.8247 43.0933C88.561 43.0933 87.5366 44.1177 87.5366 45.3813C87.5366 46.645 88.561 47.6694 89.8247 47.6694Z" fill="white"/>
<path opacity="0.1" d="M94.0637 56.4843C97.0041 56.4843 99.3878 54.1006 99.3878 51.1602C99.3878 48.2197 97.0041 45.836 94.0637 45.836C91.1232 45.836 88.7395 48.2197 88.7395 51.1602C88.7395 54.1006 91.1232 56.4843 94.0637 56.4843Z" fill="white"/>
<path d="M33.0073 68C36.4545 67.9961 39.7592 66.6248 42.1954 64.1873C44.6316 61.7497 46 58.4454 46 55.0002V54.3414C46 43.8888 34.4575 37.1254 27.0749 38.0916C20.5127 38.926 20 43.1129 20 49.3347V55.0002C20 58.4479 21.3704 61.7545 23.8098 64.1924C26.2491 66.6304 29.5576 68 33.0073 68V68Z" fill="black"/>
<path d="M28.8393 47.6694C30.103 47.6694 31.1274 46.645 31.1274 45.3813C31.1274 44.1177 30.103 43.0933 28.8393 43.0933C27.5757 43.0933 26.5513 44.1177 26.5513 45.3813C26.5513 46.645 27.5757 47.6694 28.8393 47.6694Z" fill="white"/>
<path opacity="0.1" d="M33.0783 56.4843C36.0188 56.4843 38.4025 54.1006 38.4025 51.1602C38.4025 48.2197 36.0188 45.836 33.0783 45.836C30.1379 45.836 27.7542 48.2197 27.7542 51.1602C27.7542 54.1006 30.1379 56.4843 33.0783 56.4843Z" fill="white"/>
<defs>
<filter id="filter0_i_30_1132" x="0" y="0" width="128" height="128" filterUnits="userSpaceOnUse" color-interpolation-filters="sRGB">
<feFlood flood-opacity="0" result="BackgroundImageFix"/>
<feBlend mode="normal" in="SourceGraphic" in2="BackgroundImageFix" result="shape"/>
<feColorMatrix in="SourceAlpha" type="matrix" values="0 0 0 0 0 0 0 0 0 0 0 0 0 0 0 0 0 0 127 0" result="hardAlpha"/>
<feOffset dx="-6" dy="-6"/>
<feComposite in2="hardAlpha" operator="arithmetic" k2="-1" k3="1"/>
<feColorMatrix type="matrix" values="0 0 0 0 0 0 0 0 0 0 0 0 0 0 0 0 0 0 0.04 0"/>
<feBlend mode="normal" in2="shape" result="effect1_innerShadow_30_1132"/>
</filter>
</defs>
</svg>