<svg width="131" height="128" viewBox="0 0 131 128" fill="none" xmlns="http://www.w3.org/2000/svg">
<g filter="url(#filter0_i_30_1168)">
<path d="M128 30.2436V97.7124C128.004 101.688 127.224 105.626 125.705 109.301C124.186 112.975 121.958 116.314 119.148 119.127C116.338 121.94 113.001 124.171 109.328 125.694C105.655 127.216 101.718 128 97.7417 128H30.273C22.2478 127.996 14.5522 124.807 8.87623 119.134C3.20021 113.461 0.00778584 105.767 1.42309e-05 97.7417V30.2729C-0.00384206 26.2976 0.776073 22.3605 2.29515 18.6868C3.81422 15.0132 6.04265 11.675 8.85297 8.86333C11.6633 6.05165 15.0003 3.82161 18.6733 2.30075C22.3462 0.779896 26.2829 -0.00192622 30.2583 3.56376e-06H97.7271C101.701 -0.00192302 105.636 0.778823 109.308 2.29766C112.979 3.81651 116.316 6.0437 119.127 8.85208C121.938 11.6605 124.169 14.995 125.691 18.6654C127.214 22.3358 127.998 26.27 128 30.2436V30.2436Z" fill="#71CF62"/>
</g>
<g style="mix-blend-mode:soft-light" opacity="0.4">
<path d="M64.3033 49.8949L60.8125 68.2435L64.3033 71.0302V49.8949Z" fill="black"/>
</g>
<g style="mix-blend-mode:soft-light" filter="url(#filter1_f_30_1168)">
<path d="M37.8885 66H27.1115C22.6317 66 19 69.5817 19 74C19 78.4183 22.6317 82 27.1115 82H37.8885C42.3683 82 46 78.4183 46 74C46 69.5817 42.3683 66 37.8885 66Z" fill="#C140A3"/>
</g>
<g style="mix-blend-mode:soft-light" filter="url(#filter2_f_30_1168)">
<path d="M99.9043 66H89.0957C84.6246 66 81 69.5785 81 73.9929V74.0071C81 78.4215 84.6246 82 89.0957 82H99.9043C104.375 82 108 78.4215 108 74.0071V73.9929C108 69.5785 104.375 66 99.9043 66Z" fill="#C140A3"/>
</g>
<path fill-rule="evenodd" clip-rule="evenodd" d="M44 98.9999C52 85.9999 73 85.9999 81 98.9999C68 92.9999 57 92.9999 44 98.9999Z" fill="#1E120B"/>
<path d="M43.3706 100C43.3151 99.9997 43.2604 99.987 43.2098 99.9626C43.1593 99.9383 43.114 99.9028 43.0771 99.8586C43.027 99.7857 43 99.6976 43 99.6071C43 99.5167 43.027 99.4286 43.0771 99.3557C46.7607 92.8971 54.2895 89 62.7135 89H62.8456C71.1376 89 78.2994 92.8971 81.9244 99.3243C81.9736 99.4005 82 99.4909 82 99.5836C82 99.6762 81.9736 99.7667 81.9244 99.8429C81.8651 99.909 81.7879 99.9537 81.7037 99.9706C81.6195 99.9875 81.5325 99.9758 81.4548 99.9371C68.0262 92.8343 57.0486 92.8343 43.532 99.9371L43.3706 100ZM62.5374 93.7143C68.778 93.8371 74.9145 95.4476 80.5008 98.4286C76.7731 93.0229 70.2276 89.8171 62.8896 89.7857H62.7722C55.2141 89.7857 48.4045 93.0543 44.6034 98.4286C50.1838 95.461 56.308 93.8511 62.5374 93.7143Z" fill="black"/>
<path d="M128.703 61.3525L81.6384 99.267C81.0823 98.9736 80.5262 98.695 79.9554 98.4309C78.7847 97.8736 77.5847 97.3749 76.37 96.9642C75.8139 96.7589 75.2724 96.5682 74.7163 96.3922C73.5309 96.0109 72.3163 95.6735 71.087 95.4095C69.8577 95.1455 68.6138 94.9108 67.3406 94.7495L120.873 51.6282C121.52 51.1111 122.345 50.8717 123.168 50.9624C123.991 51.0531 124.744 51.4665 125.264 52.1122L129.186 56.9377C129.496 57.3147 129.707 57.7634 129.8 58.2431V58.2431C129.927 58.8124 129.891 59.4058 129.697 59.9556C129.503 60.5055 129.158 60.9895 128.703 61.3525V61.3525Z" fill="#E2E0E0" stroke="#777777" stroke-width="0.39" stroke-miterlimit="10"/>
<path opacity="0.66" d="M129.8 58.2431C129.593 58.6709 129.293 59.0467 128.922 59.3431L80.2481 98.563L79.9554 98.431C78.7847 97.8736 77.5847 97.3749 76.37 96.9642C75.8285 96.7589 75.2724 96.5682 74.7163 96.3922C73.5309 96.0109 72.3163 95.6735 71.087 95.4095C69.8577 95.1455 68.6138 94.9108 67.3406 94.7495L120.873 51.6282C121.52 51.1111 122.345 50.8717 123.168 50.9624C123.991 51.0531 124.744 51.4665 125.264 52.1122L129.186 56.9377C129.496 57.3147 129.707 57.7634 129.8 58.2431V58.2431Z" fill="white"/>
<path d="M120.551 59.8859C120.431 59.7331 120.281 59.6059 120.11 59.512C119.94 59.418 119.752 59.359 119.559 59.3386C119.365 59.3181 119.169 59.3365 118.983 59.3927C118.797 59.4489 118.623 59.5417 118.473 59.6658L73.3994 95.967C74.5409 96.2896 75.6531 96.6563 76.7653 97.067L120.405 61.9686C120.552 61.8422 120.673 61.6878 120.76 61.5143C120.847 61.3408 120.899 61.1516 120.913 60.9579C120.926 60.7641 120.901 60.5696 120.839 60.3856C120.777 60.2015 120.68 60.0317 120.551 59.8859Z" fill="#CECCCC"/>
<path d="M107.907 70.0795C107.787 69.9169 107.635 69.7809 107.46 69.6801C107.285 69.5793 107.091 69.5159 106.89 69.4938C106.69 69.4718 106.487 69.4916 106.294 69.552C106.101 69.6124 105.923 69.7121 105.771 69.8449L73.3994 95.967C74.5409 96.2897 75.6531 96.6564 76.7653 97.067L107.673 72.1329C107.975 71.8909 108.169 71.5393 108.212 71.1546C108.256 70.7699 108.147 70.3835 107.907 70.0795Z" fill="#EF5656"/>
<path d="M117.259 60.2085C117.207 60.2103 117.156 60.1992 117.11 60.1762C117.064 60.1531 117.025 60.1188 116.995 60.0765L115.532 58.2578C115.499 58.2251 115.473 58.1862 115.455 58.1434C115.438 58.1006 115.428 58.0547 115.428 58.0084C115.428 57.9621 115.438 57.9162 115.455 57.8734C115.473 57.8306 115.499 57.7918 115.532 57.7591C115.599 57.6962 115.688 57.6613 115.781 57.6613C115.873 57.6613 115.962 57.6962 116.029 57.7591L117.493 59.5778C117.534 59.6118 117.568 59.6549 117.59 59.7039C117.613 59.7528 117.624 59.8062 117.622 59.8601C117.621 59.9139 117.607 59.9667 117.582 60.0144C117.557 60.0621 117.522 60.1034 117.478 60.1352C117.413 60.1788 117.337 60.2042 117.259 60.2085V60.2085Z" fill="black"/>
<path d="M111.463 64.8873C111.41 64.8869 111.358 64.8748 111.31 64.852C111.262 64.8292 111.219 64.7962 111.185 64.7553L110.454 63.8459C110.395 63.772 110.369 63.678 110.38 63.5844C110.391 63.4909 110.438 63.4056 110.512 63.3473C110.586 63.2889 110.68 63.2623 110.773 63.2733C110.866 63.2843 110.952 63.332 111.01 63.4059L111.741 64.3153C111.804 64.3831 111.839 64.4722 111.839 64.5646C111.839 64.6571 111.804 64.7462 111.741 64.814C111.66 64.869 111.562 64.8948 111.463 64.8873V64.8873Z" fill="black"/>
<path d="M99.5804 74.4503C99.5272 74.4498 99.4748 74.4378 99.4268 74.415C99.3788 74.3922 99.3363 74.3592 99.3023 74.3182L98.5706 73.4089C98.5379 73.3762 98.5119 73.3373 98.4941 73.2945C98.4764 73.2518 98.4673 73.2059 98.4673 73.1595C98.4673 73.1132 98.4764 73.0673 98.4941 73.0246C98.5119 72.9818 98.5379 72.9429 98.5706 72.9102C98.6382 72.8473 98.7271 72.8124 98.8194 72.8124C98.9116 72.8124 99.0005 72.8473 99.0682 72.9102L99.7999 73.8196C99.8626 73.8874 99.8975 73.9764 99.8975 74.0689C99.8975 74.1614 99.8626 74.2504 99.7999 74.3182C99.7749 74.3548 99.7424 74.3855 99.7045 74.4083C99.6666 74.431 99.6243 74.4454 99.5804 74.4503V74.4503Z" fill="black"/>
<path d="M87.1704 84.4532C87.1173 84.4527 87.0649 84.4407 87.0169 84.4179C86.9689 84.3951 86.9264 84.3621 86.8924 84.3212L86.1606 83.4118C86.1209 83.3369 86.1084 83.2505 86.1252 83.1673C86.1419 83.0841 86.1869 83.0094 86.2525 82.9557C86.3181 82.9021 86.4002 82.8729 86.4849 82.8732C86.5695 82.8734 86.6515 82.9031 86.7168 82.9571L87.4485 83.8665C87.4812 83.8992 87.5072 83.938 87.5249 83.9808C87.5427 84.0236 87.5518 84.0695 87.5518 84.1158C87.5518 84.1622 87.5427 84.208 87.5249 84.2508C87.5072 84.2936 87.4812 84.3325 87.4485 84.3652C87.4123 84.4007 87.3683 84.4272 87.32 84.4425C87.2716 84.4578 87.2204 84.4615 87.1704 84.4532V84.4532Z" fill="black"/>
<path d="M75.0384 94.2802C74.9849 94.2819 74.9318 94.2709 74.8834 94.2479C74.8351 94.2249 74.7929 94.1908 74.7603 94.1482L74.0286 93.2388C73.9959 93.2061 73.9699 93.1673 73.9521 93.1245C73.9344 93.0817 73.9253 93.0358 73.9253 92.9895C73.9253 92.9432 73.9344 92.8973 73.9521 92.8545C73.9699 92.8117 73.9959 92.7729 74.0286 92.7402C74.0963 92.6773 74.1851 92.6423 74.2774 92.6423C74.3697 92.6423 74.4585 92.6773 74.5262 92.7402L75.2433 93.6495C75.276 93.6822 75.302 93.7211 75.3197 93.7639C75.3374 93.8067 75.3466 93.8525 75.3466 93.8989C75.3466 93.9452 75.3374 93.9911 75.3197 94.0338C75.302 94.0766 75.276 94.1155 75.2433 94.1482C75.1938 94.2163 75.1207 94.2634 75.0384 94.2802V94.2802Z" fill="black"/>
<path d="M105.654 69.566C105.547 69.5599 105.448 69.5125 105.376 69.434L103.912 67.6153C103.878 67.5837 103.85 67.5452 103.831 67.5022C103.812 67.4593 103.802 67.4129 103.802 67.3659C103.802 67.319 103.812 67.2726 103.831 67.2296C103.85 67.1867 103.878 67.1482 103.912 67.1166C103.945 67.0838 103.984 67.0577 104.026 67.04C104.069 67.0222 104.115 67.0131 104.161 67.0131C104.207 67.0131 104.253 67.0222 104.296 67.04C104.338 67.0577 104.377 67.0838 104.41 67.1166L105.873 68.9353C105.908 68.9669 105.935 69.0054 105.954 69.0484C105.973 69.0913 105.983 69.1377 105.983 69.1847C105.983 69.2316 105.973 69.278 105.954 69.3209C105.935 69.3639 105.908 69.4024 105.873 69.434C105.849 69.4712 105.817 69.5025 105.779 69.5253C105.741 69.5482 105.698 69.5621 105.654 69.566V69.566Z" fill="black"/>
<path d="M93.4923 79.349C93.4409 79.3509 93.3898 79.3398 93.3438 79.3167C93.2977 79.2936 93.2582 79.2594 93.2289 79.217L91.7654 77.3983C91.7072 77.3244 91.6807 77.2303 91.6916 77.1368C91.7026 77.0433 91.7502 76.958 91.824 76.8996C91.8977 76.8413 91.9916 76.8147 92.0849 76.8257C92.1782 76.8367 92.2633 76.8844 92.3215 76.9583L93.785 78.777C93.8177 78.8097 93.8437 78.8486 93.8614 78.8914C93.8792 78.9341 93.8883 78.98 93.8883 79.0264C93.8883 79.0727 93.8792 79.1186 93.8614 79.1613C93.8437 79.2041 93.8177 79.243 93.785 79.2757C93.6991 79.334 93.5954 79.36 93.4923 79.349V79.349Z" fill="black"/>
<path d="M80.8921 89.5427C80.839 89.5422 80.7866 89.5302 80.7385 89.5074C80.6905 89.4846 80.648 89.4516 80.614 89.4107L79.1506 87.592C79.0878 87.5242 79.053 87.4351 79.053 87.3426C79.053 87.2501 79.0878 87.1611 79.1506 87.0933C79.1832 87.0605 79.222 87.0344 79.2647 87.0167C79.3074 86.9989 79.3531 86.9897 79.3994 86.9897C79.4456 86.9897 79.4914 86.9989 79.5341 87.0167C79.5768 87.0344 79.6155 87.0605 79.6482 87.0933L81.1116 88.912C81.1743 88.9798 81.2092 89.0689 81.2092 89.1613C81.2092 89.2538 81.1743 89.3429 81.1116 89.4107C81.0531 89.4756 80.9767 89.5215 80.8921 89.5427V89.5427Z" fill="black"/>
<path d="M94 68C97.4478 68 100.754 66.6304 103.192 64.1924C105.63 61.7545 107 58.4479 107 55.0002V54.3414C107 43.8888 95.4493 37.1254 88.0709 38.0916C81.527 38.926 81 43.1129 81 49.3347V55.0002C81.0039 58.4467 82.3748 61.7511 84.8119 64.1882C87.249 66.6253 90.5534 67.9961 94 68Z" fill="black"/>
<path d="M89.8247 47.6694C91.0884 47.6694 92.1128 46.645 92.1128 45.3813C92.1128 44.1177 91.0884 43.0933 89.8247 43.0933C88.561 43.0933 87.5366 44.1177 87.5366 45.3813C87.5366 46.645 88.561 47.6694 89.8247 47.6694Z" fill="white"/>
<path opacity="0.1" d="M94.0637 56.4844C97.0041 56.4844 99.3878 54.1007 99.3878 51.1602C99.3878 48.2198 97.0041 45.8361 94.0637 45.8361C91.1232 45.8361 88.7395 48.2198 88.7395 51.1602C88.7395 54.1007 91.1232 56.4844 94.0637 56.4844Z" fill="white"/>
<path d="M32.9927 68C29.5455 67.9961 26.2408 66.6248 23.8046 64.1873C21.3684 61.7497 20 58.4454 20 55.0002V54.3414C20 43.8888 31.5425 37.1254 38.9251 38.0916C45.4873 38.926 46 43.1129 46 49.3347V55.0002C46 58.4479 44.6296 61.7545 42.1902 64.1924C39.7509 66.6304 36.4424 68 32.9927 68V68Z" fill="black"/>
<path d="M28.8393 47.6694C30.103 47.6694 31.1274 46.645 31.1274 45.3813C31.1274 44.1177 30.103 43.0933 28.8393 43.0933C27.5757 43.0933 26.5513 44.1177 26.5513 45.3813C26.5513 46.645 27.5757 47.6694 28.8393 47.6694Z" fill="white"/>
<path opacity="0.1" d="M33.0783 56.4844C36.0188 56.4844 38.4025 54.1007 38.4025 51.1602C38.4025 48.2198 36.0188 45.8361 33.0783 45.8361C30.1379 45.8361 27.7542 48.2198 27.7542 51.1602C27.7542 54.1007 30.1379 56.4844 33.0783 56.4844Z" fill="white"/>
<defs>
<filter id="filter0_i_30_1168" x="0" y="0" width="128" height="128" filterUnits="userSpaceOnUse" color-interpolation-filters="sRGB">
<feFlood flood-opacity="0" result="BackgroundImageFix"/>
<feBlend mode="normal" in="SourceGraphic" in2="BackgroundImageFix" result="shape"/>
<feColorMatrix in="SourceAlpha" type="matrix" values="0 0 0 0 0 0 0 0 0 0 0 0 0 0 0 0 0 0 127 0" result="hardAlpha"/>
<feOffset dx="-6" dy="-6"/>
<feComposite in2="hardAlpha" operator="arithmetic" k2="-1" k3="1"/>
<feColorMatrix type="matrix" values="0 0 0 0 0 0 0 0 0 0 0 0 0 0 0 0 0 0 0.04 0"/>
<feBlend mode="normal" in2="shape" result="effect1_innerShadow_30_1168"/>
</filter>
<filter id="filter1_f_30_1168" x="9" y="56" width="47" height="36" filterUnits="userSpaceOnUse" color-interpolation-filters="sRGB">
<feFlood flood-opacity="0" result="BackgroundImageFix"/>
<feBlend mode="normal" in="SourceGraphic" in2="BackgroundImageFix" result="shape"/>
<feGaussianBlur stdDeviation="5" result="effect1_foregroundBlur_30_1168"/>
</filter>
<filter id="filter2_f_30_1168" x="71" y="56" width="47" height="36" filterUnits="userSpaceOnUse" color-interpolation-filters="sRGB">
<feFlood flood-opacity="0" result="BackgroundImageFix"/>
<feBlend mode="normal" in="SourceGraphic" in2="BackgroundImageFix" result="shape"/>
<feGaussianBlur stdDeviation="5" result="effect1_foregroundBlur_30_1168"/>
</filter>
</defs>
</svg>