<svg width="128" height="128" viewBox="0 0 128 128" fill="none" xmlns="http://www.w3.org/2000/svg">
<g filter="url(#filter0_i_30_1180)">
<path d="M128 30.2436V97.7124C128.004 101.688 127.224 105.626 125.705 109.301C124.186 112.975 121.958 116.314 119.148 119.127C116.338 121.94 113.001 124.171 109.328 125.694C105.655 127.216 101.718 128 97.7417 128H30.273C22.2478 127.996 14.5522 124.807 8.87623 119.134C3.20021 113.461 0.00778584 105.767 1.42309e-05 97.7417V30.2729C-0.00384206 26.2976 0.776073 22.3605 2.29515 18.6868C3.81422 15.0132 6.04265 11.675 8.85297 8.86333C11.6633 6.05165 15.0003 3.82161 18.6733 2.30075C22.3462 0.779896 26.2829 -0.00192622 30.2583 3.56376e-06H97.7271C101.701 -0.00192302 105.636 0.778823 109.308 2.29766C112.979 3.81651 116.316 6.0437 119.127 8.85208C121.938 11.6605 124.169 14.995 125.691 18.6654C127.214 22.3358 127.998 26.27 128 30.2436V30.2436Z" fill="#D84BE5"/>
</g>
<g style="mix-blend-mode:soft-light" opacity="0.4">
<path d="M64.3033 49.8949L60.8125 68.2435L64.3033 71.0302V49.8949Z" fill="black"/>
</g>
<path fill-rule="evenodd" clip-rule="evenodd" d="M28 72C28 116 100 116 100 72C75.7073 80.8676 51.7073 81.1324 28 72Z" fill="white"/>
<path fill-rule="evenodd" clip-rule="evenodd" d="M35 92C49.3493 107.799 78.3493 108.002 93 92.5819C73.8493 96.4261 54.0638 96.2276 35 92V92Z" fill="#DDDBDB"/>
<path d="M64.0365 105.993C54.8716 106.16 45.9257 103.176 38.6834 97.537C31.0746 91.3668 27 82.544 27 72.065C27.0016 71.8952 27.0436 71.7282 27.1223 71.5778C27.201 71.4274 27.3143 71.298 27.4527 71.2003C27.5931 71.1067 27.7534 71.0473 27.9208 71.027C28.0882 71.0066 28.258 71.0258 28.4166 71.0831C51.3308 79.8766 75.2672 79.8766 99.5395 71.0831C99.7002 71.015 99.8751 70.9881 100.049 71.0048C100.222 71.0215 100.389 71.0812 100.534 71.1786C100.679 71.276 100.797 71.408 100.878 71.5627C100.96 71.7175 101.002 71.8901 101 72.065C101 82.544 96.9838 91.3668 89.3165 97.537C82.0916 103.156 73.1757 106.138 64.0365 105.993V105.993ZM29.176 73.5892C29.9939 94.4006 47.6213 103.912 64.0365 103.912C80.4517 103.912 98.1521 94.4006 98.8969 73.5599C75.1212 81.8698 51.6813 81.8845 29.176 73.5892Z" fill="black"/>
<g style="mix-blend-mode:soft-light" opacity="0.4">
<path d="M49 107C53.5022 112.161 74.0316 112.503 79 107C69.1186 109.224 58.8814 109.224 49 107V107Z" fill="black"/>
</g>
<path d="M97.4109 64H90.823C81.117 64 81.117 64.0732 81.117 54.2939V50.2094C81.115 48.6068 81.429 47.0194 82.041 45.5382C82.653 44.057 83.551 42.7109 84.6836 41.577C85.8161 40.443 87.1611 39.5434 88.6416 38.9297C90.1221 38.3159 91.7091 38 93.3118 38H94.9221C96.5248 38 98.1118 38.3159 99.5923 38.9297C101.073 39.5434 102.418 40.443 103.55 41.577C104.683 42.7109 105.581 44.057 106.193 45.5382C106.805 47.0194 107.119 48.6068 107.117 50.2094V54.3671C107.088 64.0732 107.088 64 97.4109 64Z" fill="black"/>
<path d="M89.8738 47.5337C91.1374 47.5337 92.1618 46.5093 92.1618 45.2456C92.1618 43.9819 91.1374 42.9575 89.8738 42.9575C88.6101 42.9575 87.5857 43.9819 87.5857 45.2456C87.5857 46.5093 88.6101 47.5337 89.8738 47.5337Z" fill="white"/>
<path opacity="0.1" d="M94.1125 56.3486C97.053 56.3486 99.4367 53.9649 99.4367 51.0244C99.4367 48.084 97.053 45.7003 94.1125 45.7003C91.172 45.7003 88.7883 48.084 88.7883 51.0244C88.7883 53.9649 91.172 56.3486 94.1125 56.3486Z" fill="white"/>
<path d="M21.8169 57C21.6458 56.9982 21.4762 56.9685 21.3143 56.9121C21.1008 56.8453 20.9025 56.7361 20.7305 56.5908C20.5586 56.4455 20.4165 56.267 20.3124 56.0655C20.2083 55.864 20.1443 55.6435 20.124 55.4167C20.1037 55.1899 20.1275 54.9612 20.1941 54.7438C21.0074 51.9013 22.712 49.4093 25.0466 47.6496C27.3811 45.8899 30.2169 44.9596 33.1193 45.0013V45.0013C36.0184 44.9742 38.8474 45.91 41.1791 47.6676C43.5108 49.4251 45.2186 51.9089 46.0446 54.7438C46.1745 55.1848 46.1282 55.6604 45.9156 56.0666C45.703 56.4729 45.3415 56.7768 44.9101 56.9121C44.697 56.9821 44.4724 57.0079 44.2495 56.9881C44.0265 56.9684 43.8096 56.9033 43.6116 56.7969C43.4137 56.6904 43.2385 56.5447 43.0965 56.3683C42.9544 56.1918 42.8484 55.9882 42.7846 55.7694C42.1618 53.638 40.8766 51.771 39.1229 50.4497C37.3692 49.1285 35.242 48.4246 33.0619 48.4442C30.8916 48.4373 28.7774 49.1471 27.0353 50.4674C25.2932 51.7877 24.0167 53.6477 23.3967 55.7694C23.2902 56.1158 23.0811 56.4201 22.7982 56.6404C22.5154 56.8608 22.1726 56.9864 21.8169 57V57Z" fill="black"/>
<defs>
<filter id="filter0_i_30_1180" x="0" y="0" width="128" height="128" filterUnits="userSpaceOnUse" color-interpolation-filters="sRGB">
<feFlood flood-opacity="0" result="BackgroundImageFix"/>
<feBlend mode="normal" in="SourceGraphic" in2="BackgroundImageFix" result="shape"/>
<feColorMatrix in="SourceAlpha" type="matrix" values="0 0 0 0 0 0 0 0 0 0 0 0 0 0 0 0 0 0 127 0" result="hardAlpha"/>
<feOffset dx="-6" dy="-6"/>
<feComposite in2="hardAlpha" operator="arithmetic" k2="-1" k3="1"/>
<feColorMatrix type="matrix" values="0 0 0 0 0 0 0 0 0 0 0 0 0 0 0 0 0 0 0.04 0"/>
<feBlend mode="normal" in2="shape" result="effect1_innerShadow_30_1180"/>
</filter>
</defs>
</svg>