<svg width="128" height="128" viewBox="0 0 128 128" fill="none" xmlns="http://www.w3.org/2000/svg">
<g filter="url(#filter0_i_30_1144)">
<path d="M128 30.2436V97.7124C128.004 101.688 127.224 105.626 125.705 109.301C124.186 112.975 121.958 116.314 119.148 119.127C116.338 121.94 113.001 124.171 109.328 125.694C105.655 127.216 101.718 128 97.7417 128H30.273C22.2478 127.996 14.5522 124.807 8.87623 119.134C3.20021 113.461 0.00778584 105.767 1.42309e-05 97.7417V30.2729C-0.00384206 26.2976 0.776073 22.3605 2.29515 18.6868C3.81422 15.0132 6.04265 11.675 8.85297 8.86333C11.6633 6.05165 15.0003 3.82161 18.6733 2.30075C22.3462 0.779896 26.2829 -0.00192622 30.2583 3.56376e-06H97.7271C101.701 -0.00192302 105.636 0.778823 109.308 2.29766C112.979 3.81651 116.316 6.0437 119.127 8.85208C121.938 11.6605 124.169 14.995 125.691 18.6654C127.214 22.3358 127.998 26.27 128 30.2436V30.2436Z" fill="#F6D594"/>
</g>
<g style="mix-blend-mode:soft-light" opacity="0.4">
<path d="M64.3033 49.8949L60.8125 68.2435L64.3033 71.0302V49.8949Z" fill="black"/>
</g>
<g style="mix-blend-mode:soft-light" filter="url(#filter1_f_30_1144)">
<path d="M37.8885 66H27.1115C22.6317 66 19 69.5817 19 74C19 78.4183 22.6317 82 27.1115 82H37.8885C42.3683 82 46 78.4183 46 74C46 69.5817 42.3683 66 37.8885 66Z" fill="#C140A3"/>
</g>
<g style="mix-blend-mode:soft-light" filter="url(#filter2_f_30_1144)">
<path d="M99.9043 66H89.0957C84.6246 66 81 69.5785 81 73.9929V74.0071C81 78.4215 84.6246 82 89.0957 82H99.9043C104.375 82 108 78.4215 108 74.0071V73.9929C108 69.5785 104.375 66 99.9043 66Z" fill="#C140A3"/>
</g>
<path fill-rule="evenodd" clip-rule="evenodd" d="M30.0291 108.045C30.0291 60.045 100.029 60.045 100.029 108.045H30.0291Z" fill="#2B1607"/>
<path fill-rule="evenodd" clip-rule="evenodd" d="M41.1182 82.7363C52.9845 69.351 76.0667 69.4551 89.1182 82.7363H41.1182Z" fill="white"/>
<path d="M31.0159 100.799H98.981C99.3009 103.116 99.4466 105.457 99.4166 107.799H30.4206C30.4137 105.451 30.613 103.107 31.0159 100.799Z" fill="white"/>
<path d="M99.9692 109H30.0292C29.7562 109 29.4944 108.891 29.3014 108.698C29.1084 108.505 29 108.243 29 107.969C29 82.6119 47.6555 71 65.0064 71C82.3573 71 100.998 82.6119 100.998 107.926C101.006 108.065 100.986 108.205 100.937 108.336C100.889 108.467 100.814 108.587 100.717 108.687C100.621 108.788 100.505 108.868 100.376 108.922C100.247 108.975 100.109 109.002 99.9692 109V109ZM31.0728 106.939H98.8675C98.6501 96.6042 94.9973 87.9388 88.2859 81.8136C81.8626 76.0996 73.5397 72.9937 64.9484 73.1047C48.8876 73.1192 31.5802 83.715 31.0728 106.939Z" fill="black"/>
<path d="M82.7 57C82.5289 56.9982 82.3592 56.9685 82.1973 56.9121C81.9839 56.8453 81.7855 56.7361 81.6136 56.5908C81.4416 56.4455 81.2996 56.267 81.1955 56.0655C81.0914 55.864 81.0273 55.6435 81.007 55.4167C80.9867 55.1899 81.0105 54.9612 81.0771 54.7438C81.8905 51.9013 83.5951 49.4093 85.9296 47.6496C88.2642 45.8899 91.1 44.9596 94.0024 45.0013V45.0013C96.9015 44.9742 99.7305 45.91 102.062 47.6676C104.394 49.4251 106.102 51.9089 106.928 54.7438C107.058 55.1848 107.011 55.6604 106.799 56.0666C106.586 56.4729 106.225 56.7768 105.793 56.9121C105.58 56.9821 105.355 57.0079 105.133 56.9881C104.91 56.9684 104.693 56.9033 104.495 56.7969C104.297 56.6904 104.122 56.5447 103.98 56.3683C103.838 56.1918 103.731 55.9882 103.668 55.7694C103.045 53.638 101.76 51.771 100.006 50.4497C98.2523 49.1285 96.125 48.4246 93.945 48.4442C91.7747 48.4373 89.6605 49.1471 87.9184 50.4674C86.1763 51.7877 84.8998 53.6477 84.2797 55.7694C84.1732 56.1158 83.9642 56.4201 83.6813 56.6404C83.3984 56.8608 83.0556 56.9864 82.7 57V57Z" fill="black"/>
<path d="M21.7126 56.9999C21.5413 57.0015 21.3711 56.9717 21.2101 56.912C20.9954 56.8467 20.7956 56.7386 20.6222 56.594C20.4487 56.4494 20.3051 56.2711 20.1996 56.0694C20.0941 55.8678 20.0289 55.6468 20.0076 55.4192C19.9864 55.1917 20.0096 54.9621 20.0759 54.7437C20.8932 51.9037 22.5984 49.4144 24.9314 47.6554C27.2643 45.8964 30.097 44.9642 32.9975 45.0011V45.0011C35.8969 44.9691 38.7273 45.9031 41.0593 47.6614C43.3913 49.4197 45.0976 51.9062 45.9192 54.7437C45.9877 54.9611 46.0131 55.1902 45.9937 55.4176C45.9743 55.6451 45.9106 55.8663 45.8063 56.0683C45.7019 56.2703 45.5591 56.449 45.3862 56.5939C45.2133 56.7387 45.0137 56.8469 44.7993 56.912C44.3671 57.0497 43.899 57.0066 43.4979 56.7923C43.0968 56.5781 42.7955 56.2101 42.66 55.7693C42.0381 53.6403 40.7555 51.775 39.0051 50.454C37.2548 49.1329 35.1315 48.4275 32.9544 48.444V48.444C30.7823 48.4339 28.6655 49.1422 26.921 50.4628C25.1764 51.7834 23.8982 53.6452 23.2776 55.7693C23.1738 56.1146 22.9674 56.4184 22.6871 56.6389C22.4068 56.8593 22.0663 56.9855 21.7126 56.9999V56.9999Z" fill="black"/>
<path d="M20.3657 77.5304C20.1112 78.3654 19.6942 79.142 19.1386 79.8155C18.5831 80.489 17.9001 81.0461 17.1286 81.455C16.3572 81.8638 15.5126 82.1163 14.6433 82.1979C13.7741 82.2795 12.8973 82.1886 12.0632 81.9305C10.4429 81.2474 9.15946 79.9499 8.49408 78.3224C7.8287 76.6949 7.83562 74.87 8.51335 73.2476C10.2589 68.4221 14.9089 67.6154 19.7497 60.7805C18.7375 68.8474 22.302 72.2649 20.3657 77.5304Z" fill="#4ABCF4"/>
<path d="M106.134 77.5304C106.379 78.3645 106.793 79.1393 107.351 79.8065C107.908 80.4737 108.597 81.0191 109.374 81.4087C110.151 81.7984 111 82.024 111.868 82.0714C112.736 82.1189 113.605 81.9873 114.42 81.6847C115.235 81.3821 115.979 80.9151 116.606 80.3126C117.233 79.7102 117.729 78.9852 118.063 78.1828C118.398 77.3804 118.564 76.5178 118.551 75.6486C118.537 74.7794 118.346 73.9222 117.987 73.1303C116.241 68.3781 111.591 67.5715 106.706 60.7366C107.763 68.8475 104.198 72.2649 106.134 77.5304Z" fill="#4ABCF4"/>
<defs>
<filter id="filter0_i_30_1144" x="0" y="0" width="128" height="128" filterUnits="userSpaceOnUse" color-interpolation-filters="sRGB">
<feFlood flood-opacity="0" result="BackgroundImageFix"/>
<feBlend mode="normal" in="SourceGraphic" in2="BackgroundImageFix" result="shape"/>
<feColorMatrix in="SourceAlpha" type="matrix" values="0 0 0 0 0 0 0 0 0 0 0 0 0 0 0 0 0 0 127 0" result="hardAlpha"/>
<feOffset dx="-6" dy="-6"/>
<feComposite in2="hardAlpha" operator="arithmetic" k2="-1" k3="1"/>
<feColorMatrix type="matrix" values="0 0 0 0 0 0 0 0 0 0 0 0 0 0 0 0 0 0 0.04 0"/>
<feBlend mode="normal" in2="shape" result="effect1_innerShadow_30_1144"/>
</filter>
<filter id="filter1_f_30_1144" x="9" y="56" width="47" height="36" filterUnits="userSpaceOnUse" color-interpolation-filters="sRGB">
<feFlood flood-opacity="0" result="BackgroundImageFix"/>
<feBlend mode="normal" in="SourceGraphic" in2="BackgroundImageFix" result="shape"/>
<feGaussianBlur stdDeviation="5" result="effect1_foregroundBlur_30_1144"/>
</filter>
<filter id="filter2_f_30_1144" x="71" y="56" width="47" height="36" filterUnits="userSpaceOnUse" color-interpolation-filters="sRGB">
<feFlood flood-opacity="0" result="BackgroundImageFix"/>
<feBlend mode="normal" in="SourceGraphic" in2="BackgroundImageFix" result="shape"/>
<feGaussianBlur stdDeviation="5" result="effect1_foregroundBlur_30_1144"/>
</filter>
</defs>
</svg>